<?xml version="1.0" encoding="utf-8"?>
<!-- Svg Vector Icons : http://www.onlinewebfonts.com/icon -->
<!DOCTYPE svg PUBLIC "-//W3C//DTD SVG 1.1//EN" "http://www.w3.org/Graphics/SVG/1.1/DTD/svg11.dtd">
<svg version="1.1" xmlns="http://www.w3.org/2000/svg" xmlns:xlink="http://www.w3.org/1999/xlink" x="0px" y="0px" viewBox="0 0 1000 1000" enable-background="new 0 0 1000 1000" xml:space="preserve">
<metadata> Svg Vector Icons : http://www.onlinewebfonts.com/icon </metadata>
<g><g transform="translate(0.000000,512.000000) scale(0.100000,-0.100000)"><path d="M961.1,4987.2c-382.8-99.5-631.7-425-631.7-826.9c0-407.7,260.3-738.9,652.7-832.7c107.2-24.9,608.7-28.7,4010.2-28.7c2526.7,0,3924.1,7.7,3991.1,19.1c214.4,40.2,444.1,195.2,560.9,379c168.5,268,168.5,658.5,0,926.5c-116.8,183.8-346.5,338.8-560.9,379c-67,11.5-1464.4,19.2-4000.6,17.2C1380.3,5019.7,1075.9,5017.8,961.1,4987.2z"/><path d="M999.3,961.6c-199.1-38.3-432.6-202.9-547.5-384.8c-164.6-260.3-162.7-652.7,3.8-918.8c116.8-183.8,346.5-338.8,560.9-379c141.7-26.8,7825.2-26.8,7966.8,0c260.4,47.9,490.1,229.7,608.7,476.6c59.3,128.3,68.9,166.5,74.6,327.3c7.7,201-28.7,352.2-122.5,501.5c-116.8,183.8-346.5,338.8-560.9,379C8853.3,988.4,1123.8,986.5,999.3,961.6z"/><path d="M999.3-3077.3c-201-40.2-430.7-197.2-543.6-377.1c-166.5-266.1-168.4-658.5-3.8-918.8c120.6-191.4,346.5-346.5,564.7-386.7c141.7-26.8,7825.2-26.8,7966.8,0c260.4,47.9,490.1,229.7,608.7,476.6c59.3,128.2,68.9,166.5,74.6,327.3c7.7,201-28.7,352.2-122.5,501.5c-116.8,183.8-346.5,338.8-560.9,379C8853.3-3050.5,1123.8-3052.4,999.3-3077.3z"/></g></g>
</svg>